<svg width="20" height="20" viewBox="0 0 20 20" fill="none" xmlns="http://www.w3.org/2000/svg">
<path d="M18.8917 0H1.10833C0.815059 0.00218057 0.534415 0.119651 0.327033 0.327033C0.119651 0.534415 0.00218057 0.815059 0 1.10833V18.8917C0.00218057 19.1849 0.119651 19.4656 0.327033 19.673C0.534415 19.8803 0.815059 19.9978 1.10833 20H10.6833V12.2667H8.08333V9.24167H10.6833V7.01667C10.6833 4.43333 12.2583 3.025 14.575 3.025C15.35 3.025 16.125 3.025 16.9 3.14167V5.83333H15.3083C14.05 5.83333 13.8083 6.43333 13.8083 7.30833V9.23333H16.8083L16.4167 12.2583H13.8083V20H18.8917C19.1849 19.9978 19.4656 19.8803 19.673 19.673C19.8803 19.4656 19.9978 19.1849 20 18.8917V1.10833C19.9978 0.815059 19.8803 0.534415 19.673 0.327033C19.4656 0.119651 19.1849 0.00218057 18.8917 0Z" fill="#333333"/>
</svg>
