<svg width="20" height="20" viewBox="0 0 20 20" fill="none" xmlns="http://www.w3.org/2000/svg">
<path d="M11.0286 0.000742114C11.7583 -0.00205811 12.488 0.00527601 13.2176 0.0227422L13.4116 0.0297422C13.6356 0.0377422 13.8566 0.0477421 14.1236 0.0597421C15.1876 0.109742 15.9136 0.277742 16.5506 0.524742C17.2106 0.778742 17.7666 1.12274 18.3226 1.67874C18.831 2.17835 19.2244 2.78269 19.4756 3.44974C19.7226 4.08674 19.8906 4.81374 19.9406 5.87774C19.9526 6.14374 19.9626 6.36574 19.9706 6.58974L19.9766 6.78374C19.9943 7.51293 20.002 8.24234 19.9996 8.97174L20.0006 9.71774V11.0277C20.003 11.7575 19.9954 12.4872 19.9776 13.2167L19.9716 13.4107C19.9636 13.6347 19.9536 13.8557 19.9416 14.1227C19.8916 15.1867 19.7216 15.9127 19.4756 16.5497C19.2252 17.2175 18.8317 17.8223 18.3226 18.3217C17.8225 18.8301 17.2179 19.2235 16.5506 19.4747C15.9136 19.7217 15.1876 19.8897 14.1236 19.9397C13.8566 19.9517 13.6356 19.9617 13.4116 19.9697L13.2176 19.9757C12.4881 19.9935 11.7583 20.0012 11.0286 19.9987L10.2826 19.9997H8.97358C8.24384 20.0022 7.5141 19.9945 6.78458 19.9767L6.59058 19.9707C6.35319 19.9621 6.11585 19.9521 5.87858 19.9407C4.81458 19.8907 4.08858 19.7207 3.45058 19.4747C2.78326 19.2241 2.17881 18.8306 1.67958 18.3217C1.17062 17.822 0.776801 17.2173 0.525577 16.5497C0.278577 15.9127 0.110577 15.1867 0.0605769 14.1227C0.0494399 13.8855 0.0394398 13.6481 0.030577 13.4107L0.0255771 13.2167C0.00714068 12.4872 -0.00119355 11.7575 0.000577001 11.0277V8.97174C-0.00221397 8.24234 0.00512015 7.51294 0.0225771 6.78374L0.029577 6.58974C0.037577 6.36574 0.047577 6.14374 0.059577 5.87774C0.109577 4.81274 0.277577 4.08774 0.524577 3.44974C0.77595 2.78236 1.17054 2.17819 1.68058 1.67974C2.17947 1.17049 2.78354 0.776315 3.45058 0.524742C4.08858 0.277742 4.81358 0.109742 5.87858 0.0597421L6.59058 0.0297422L6.78458 0.0247423C7.51376 0.0063151 8.24316 -0.00201913 8.97258 -0.000257813L11.0286 0.000742114ZM10.0006 5.00074C9.33808 4.99137 8.68033 5.11377 8.06555 5.36081C7.45077 5.60785 6.89122 5.97462 6.41942 6.4398C5.94762 6.90497 5.57298 7.45928 5.31726 8.07051C5.06155 8.68173 4.92987 9.33768 4.92987 10.0002C4.92987 10.6628 5.06155 11.3188 5.31726 11.93C5.57298 12.5412 5.94762 13.0955 6.41942 13.5607C6.89122 14.0259 7.45077 14.3926 8.06555 14.6397C8.68033 14.8867 9.33808 15.0091 10.0006 14.9997C11.3267 14.9997 12.5984 14.473 13.5361 13.5353C14.4738 12.5976 15.0006 11.3258 15.0006 9.99974C15.0006 8.67366 14.4738 7.40189 13.5361 6.46421C12.5984 5.52653 11.3267 5.00074 10.0006 5.00074ZM10.0006 7.00074C10.3991 6.9934 10.7951 7.06554 11.1654 7.21295C11.5357 7.36036 11.8729 7.58008 12.1574 7.85929C12.4418 8.13849 12.6678 8.47157 12.822 8.83908C12.9763 9.20659 13.0558 9.60116 13.0558 9.99973C13.0559 10.3983 12.9766 10.7929 12.8224 11.1605C12.6683 11.528 12.4424 11.8612 12.1581 12.1405C11.8737 12.4198 11.5366 12.6396 11.1663 12.7871C10.796 12.9347 10.4001 13.007 10.0016 12.9997C9.20593 12.9997 8.44287 12.6837 7.88026 12.1211C7.31765 11.5585 7.00158 10.7954 7.00158 9.99974C7.00158 9.20409 7.31765 8.44103 7.88026 7.87842C8.44287 7.31581 9.20593 6.99974 10.0016 6.99974L10.0006 7.00074ZM15.2506 3.50074C14.928 3.51365 14.6229 3.65089 14.3992 3.88371C14.1755 4.11653 14.0506 4.42688 14.0506 4.74974C14.0506 5.07261 14.1755 5.38295 14.3992 5.61577C14.6229 5.84859 14.928 5.98583 15.2506 5.99874C15.5821 5.99874 15.9 5.86705 16.1345 5.63263C16.3689 5.39821 16.5006 5.08026 16.5006 4.74874C16.5006 4.41722 16.3689 4.09928 16.1345 3.86486C15.9 3.63044 15.5821 3.49874 15.2506 3.49874V3.50074Z" fill="#333333"/>
</svg>
