<svg width="18" height="22" viewBox="0 0 18 22" fill="none" xmlns="http://www.w3.org/2000/svg">
<path d="M14.2806 3.44667C13.4959 2.49287 13.0634 1.26797 13.0638 0H9.51658V15.1556C9.48922 15.9757 9.16401 16.7525 8.60942 17.3225C8.05484 17.8924 7.31416 18.211 6.54337 18.2111C4.91326 18.2111 3.55867 16.7933 3.55867 15.0333C3.55867 12.9311 5.46429 11.3544 7.4273 12.0022V8.14C3.46684 7.57778 0 10.8533 0 15.0333C0 19.1033 3.16837 22 6.53189 22C10.1365 22 13.0638 18.8833 13.0638 15.0333V7.34556C14.5022 8.44537 16.2291 9.03546 18 9.03222V5.25556C18 5.25556 15.8418 5.36556 14.2806 3.44667Z" fill="#333333"/>
</svg>
