<svg width="20" height="18" viewBox="0 0 20 18" fill="none" xmlns="http://www.w3.org/2000/svg">
<path d="M19.7828 3.53097L17.0145 6.33402C16.4553 12.8982 10.9882 18 4.44519 18C3.10087 18 1.99263 17.7844 1.15103 17.3588C0.472387 17.0147 0.194633 16.6463 0.125194 16.5413C0.0632779 16.4473 0.0231457 16.3403 0.00779659 16.2284C-0.00755247 16.1164 0.00227861 16.0024 0.0365548 15.8949C0.0708311 15.7873 0.128666 15.689 0.205739 15.6073C0.282812 15.5256 0.37713 15.4625 0.481645 15.4229C0.505717 15.4135 2.7259 14.5501 4.13596 12.9067C3.35398 12.2557 2.67134 11.4912 2.11021 10.638C0.96216 8.91209 -0.322915 5.91403 0.0733469 1.43383C0.0859072 1.29147 0.13838 1.15571 0.224586 1.04253C0.310793 0.929355 0.427142 0.843478 0.559933 0.795014C0.692724 0.746549 0.836428 0.737515 0.974119 0.768975C1.11181 0.800435 1.23776 0.87108 1.33713 0.972589C1.36953 1.0054 4.41835 4.07564 8.1458 5.07124V4.50032C8.14439 3.90164 8.26128 3.30872 8.48961 2.75649C8.71794 2.20425 9.05309 1.70386 9.47532 1.28477C9.88538 0.870147 10.3733 0.542888 10.9103 0.322302C11.4473 0.101715 12.0225 -0.00772953 12.6019 0.000424283C13.3792 0.00818747 14.1413 0.219469 14.8141 0.613727C15.4869 1.00799 16.0475 1.57181 16.4414 2.25037H19.2587C19.4053 2.25025 19.5486 2.29418 19.6705 2.37658C19.7925 2.45898 19.8875 2.57615 19.9436 2.71327C19.9997 2.85038 20.0144 3.00127 19.9857 3.14683C19.9571 3.29239 19.8865 3.42608 19.7828 3.53097Z" fill="#333333"/>
</svg>
