<svg width="30" height="30" viewBox="0 0 30 30" fill="none" xmlns="http://www.w3.org/2000/svg">
<path d="M9.66589 23.4C10.148 23.4 10.6105 23.5896 10.9514 23.9272C11.2923 24.2648 11.4839 24.7226 11.4839 25.2C11.4839 25.6774 11.2923 26.1352 10.9514 26.4728C10.6105 26.8104 10.148 27 9.66589 27C9.18374 27 8.72133 26.8104 8.38039 26.4728C8.03946 26.1352 7.84792 25.6774 7.84792 25.2C7.84792 24.7226 8.03946 24.2648 8.38039 23.9272C8.72133 23.5896 9.18374 23.4 9.66589 23.4ZM21.7857 23.4C22.2678 23.4 22.7303 23.5896 23.0712 23.9272C23.4121 24.2648 23.6037 24.7226 23.6037 25.2C23.6037 25.6774 23.4121 26.1352 23.0712 26.4728C22.7303 26.8104 22.2678 27 21.7857 27C21.3035 27 20.8411 26.8104 20.5002 26.4728C20.1593 26.1352 19.9677 25.6774 19.9677 25.2C19.9677 24.7226 20.1593 24.2648 20.5002 23.9272C20.8411 23.5896 21.3035 23.4 21.7857 23.4ZM4.21198 3C6.30386 3 7.8758 4.5396 8.02366 6.6H24.5757C24.9308 6.59995 25.2815 6.67714 25.6032 6.82613C25.9248 6.97511 26.2095 7.19225 26.437 7.46217C26.6645 7.7321 26.8294 8.04823 26.9199 8.3882C27.0104 8.72818 27.0244 9.08369 26.9608 9.4296L24.9768 20.2296C24.8752 20.7826 24.5808 21.2827 24.1449 21.6428C23.709 22.0029 23.1593 22.2001 22.5917 22.2H8.97627C8.36318 22.2 7.77286 21.97 7.32421 21.5563C6.87555 21.1426 6.6019 20.5759 6.55837 19.9704L5.58879 6.5148C5.53304 5.772 4.89554 5.4 4.21198 5.4C3.89054 5.4 3.58227 5.27357 3.35498 5.04853C3.12769 4.82348 3 4.51826 3 4.2C3 3.88174 3.12769 3.57652 3.35498 3.35147C3.58227 3.12643 3.89054 3 4.21198 3Z" fill="#889966"/>
</svg>
