<svg width="28" height="28" viewBox="0 0 28 28" fill="none" xmlns="http://www.w3.org/2000/svg">
<path d="M6 7.9356H23.4669C23.8208 7.93561 24.1708 8.01369 24.4943 8.16481C24.8178 8.31592 25.1076 8.53671 25.3451 8.81295C25.5826 9.08919 25.7624 9.41475 25.8731 9.76864C25.9837 10.1225 26.0227 10.4969 25.9875 10.8676L25.2275 18.8676C25.165 19.5256 24.8724 20.1357 24.4067 20.5794C23.9409 21.0232 23.3351 21.2689 22.7069 21.2689H10.6105C10.0247 21.2692 9.45687 21.0557 9.00375 20.6647C8.55063 20.2738 8.24024 19.7297 8.12541 19.1249L6 7.9356Z" stroke="#BBCC77" stroke-width="3" stroke-linejoin="round"/>
<path d="M5.90001 7.59771L4.84701 3.05936C4.77658 2.75674 4.61424 2.48813 4.38577 2.29619C4.15731 2.10426 3.87581 2 3.586 2H2M9.79997 26H12.4M20.2 26H22.8" stroke="#BBCC77" stroke-width="3" stroke-linecap="round" stroke-linejoin="round"/>
</svg>
