<svg width="26" height="26" viewBox="0 0 26 26" fill="none" xmlns="http://www.w3.org/2000/svg">
<path d="M3.69118 25.5C2.88235 25.5 2.18971 25.2554 1.61324 24.7663C1.03774 24.2763 0.75 23.6875 0.75 23V5.5H3.69118V23H19.8676V25.5H3.69118ZM9.57353 20.5C8.76471 20.5 8.07255 20.2554 7.49706 19.7663C6.92059 19.2763 6.63235 18.6875 6.63235 18V3C6.63235 2.3125 6.92059 1.72375 7.49706 1.23375C8.07255 0.744583 8.76471 0.5 9.57353 0.5H22.8088C23.6176 0.5 24.3103 0.744583 24.8868 1.23375C25.4623 1.72375 25.75 2.3125 25.75 3V18C25.75 18.6875 25.4623 19.2763 24.8868 19.7663C24.3103 20.2554 23.6176 20.5 22.8088 20.5H9.57353Z" fill="white"/>
</svg>
