<svg width="18" height="26" viewBox="0 0 18 26" fill="none" xmlns="http://www.w3.org/2000/svg">
<path d="M9 0C4.02429 0 0 4.069 0 9.1C0 15.925 9 26 9 26C9 26 18 15.925 18 9.1C18 4.069 13.9757 0 9 0ZM9 12.35C8.14752 12.35 7.32995 12.0076 6.72716 11.3981C6.12436 10.7886 5.78571 9.96195 5.78571 9.1C5.78571 8.23805 6.12436 7.4114 6.72716 6.8019C7.32995 6.19241 8.14752 5.85 9 5.85C9.85248 5.85 10.67 6.19241 11.2728 6.8019C11.8756 7.4114 12.2143 8.23805 12.2143 9.1C12.2143 9.96195 11.8756 10.7886 11.2728 11.3981C10.67 12.0076 9.85248 12.35 9 12.35Z" fill="#FF9933"/>
</svg>
