<svg width="30" height="30" viewBox="0 0 30 30" fill="none" xmlns="http://www.w3.org/2000/svg">
<path d="M30 6.21926C30 3.97687 28.0115 2 24.9217 2C22.1897 2 19.8385 3.04655 17.9326 5.11021C16.5256 6.63457 15.5997 8.70495 15 10.9799C14.4003 8.70443 13.4744 6.63406 12.0668 5.11021C10.1615 3.04655 7.81032 2 5.07832 2C1.98852 2 0 3.97687 0 6.21926C0 12.2196 14.8466 27.8414 15 28C15.1534 27.8409 30 12.2196 30 6.21926ZM25.5396 5.28325C32.3624 9.55365 22.1816 15.7322 15.9859 22.7135C16.2171 18.1177 17.2734 0.109908 25.5396 5.28325ZM4.4609 5.28325C12.7266 0.109908 13.7834 18.1177 14.0146 22.7135C7.81837 15.7322 -2.36187 9.55365 4.46036 5.28377L4.4609 5.28325Z" fill="#889966"/>
</svg>
