<svg width="100" height="100" viewBox="0 0 100 100" fill="none" xmlns="http://www.w3.org/2000/svg">
<g clip-path="url(#clip0_56_356)">
<path d="M3.79044 98.8912C5.22318 96.8571 7.44725 95.3064 8.6884 93.1722C9.52138 93.4973 10.2461 94.2643 11.1624 94.6145C12.2119 95.0146 13.3448 95.1814 14.436 95.1147C18.5759 94.8812 20.9749 92.0217 21.533 88.9121C21.6247 88.3702 20.9416 87.995 20.4085 88.3118C17.1599 90.2793 15.0524 85.9275 14.9108 84.0351C14.7442 81.8508 15.0358 79.6749 15.3856 77.549C16.0853 73.3223 18.2011 69.7708 20.8417 66.4777C21.7746 65.5774 22.6742 64.6436 23.5572 63.6932C23.299 64.4435 23.0574 65.1939 22.8575 65.9692C22.1911 68.5369 21.3914 71.6632 22.3494 74.3644C23.8154 78.4911 29.0299 80.9254 33.2948 79.5332C37.3931 78.191 39.8671 73.8225 37.7346 69.8792C37.4348 69.3206 37.0266 68.8037 36.5351 68.3619C35.4023 67.3281 33.8362 66.7028 32.2869 66.6862C30.8708 66.6695 29.1132 67.228 28.4885 68.4202C28.1386 69.0955 28.022 70.1293 28.3719 70.8629C28.6134 71.3548 29.0299 71.7799 29.5464 72.0467C30.521 72.5553 31.3123 72.1384 32.2619 72.3468C35.5522 73.0555 33.8113 75.3064 32.7117 75.8983C31.9704 76.2985 31.0874 76.3985 30.2128 76.3652C21.4997 76.015 24.0986 66.3777 25.9895 61.8841C26.356 61.0088 26.7809 60.1501 27.214 59.2914C29.7796 55.8066 31.7954 52.005 32.8283 47.8616C34.1528 42.5427 33.1865 36.2735 28.8383 32.0634C27.1724 30.446 25.0899 29.2205 22.8575 28.3785C21.7663 27.97 20.6418 27.6532 19.5006 27.4365C18.1178 27.1697 16.7101 27.0696 15.3106 27.1113C20.4169 24.2768 24.6068 19.9583 27.2973 14.7645C27.0391 16.7653 27.0891 18.8329 27.4806 20.842C27.6972 21.9758 28.0137 23.1097 28.4218 24.2018C29.2548 26.4444 30.4876 28.5202 32.1036 30.1876C36.3102 34.5394 42.5743 35.5065 47.8887 34.1809C52.037 33.1472 55.8271 31.1297 59.309 28.5619C60.1669 28.1284 61.0249 27.7032 61.8996 27.3364C66.3977 25.444 76.0187 22.8429 76.3685 31.5632C76.4018 32.4385 76.3019 33.3306 75.9021 34.0642C75.3106 35.1647 73.0616 36.8987 72.3535 33.614C72.1453 32.6553 72.5618 31.8633 72.0537 30.8962C71.7788 30.3793 71.3623 29.9625 70.8708 29.7207C70.1378 29.3623 69.1049 29.479 68.4302 29.8375C67.2473 30.4627 66.6892 32.2218 66.6976 33.639C66.7142 35.1897 67.3473 36.757 68.3719 37.8908C68.8133 38.3827 69.3298 38.7912 69.8879 39.0913C73.8279 41.2255 78.1928 38.7495 79.5339 34.6478C80.9333 30.3877 78.501 25.1605 74.3694 23.6932C71.6705 22.7345 68.5468 23.5348 65.9812 24.2018C65.2065 24.4019 64.4568 24.6353 63.7071 24.9021C64.6567 24.0267 65.5897 23.118 66.4893 22.1843C69.7796 19.5332 73.3281 17.4156 77.5514 16.7237C79.6755 16.3735 81.8496 16.0817 84.032 16.2485C85.9229 16.3902 90.2711 18.4911 88.3052 21.7508C87.9804 22.2843 88.3635 22.9763 88.905 22.8762C92.0037 22.326 94.8691 19.925 95.1024 15.7733C95.1607 14.6811 95.0024 13.5473 94.6026 12.4969C94.2527 11.5798 93.4947 10.8545 93.1615 10.0209C95.294 8.77868 96.8433 6.55276 98.8758 5.11882C99.8671 4.41853 100.725 2.78452 98.9758 2.27597C90.8458 -0.0916803 83.4906 4.53525 76.6018 7.86997C75.8771 8.22012 73.1949 10.0042 72.4368 9.63737C71.7538 9.3039 70.9624 6.87789 70.2961 6.19427C68.7884 4.64362 66.6309 3.67656 64.6484 3.62653C63.0991 3.58485 61.5497 4.17676 60.5751 5.41061C60.4502 5.56901 60.3252 5.75242 60.3086 5.97751C60.2669 6.56109 60.925 6.9029 61.4331 7.13633C66.7142 9.57902 65.2648 16.8654 62.2328 20.05C56.4768 26.0942 49.8712 32.0134 41.558 30.3627C32.4285 28.5536 25.8479 16.7487 31.2623 8.12007C31.9787 6.97793 32.9116 5.9525 34.1361 5.544C35.3606 5.1355 36.885 5.48564 37.7263 6.64446C38.7176 8.02003 38.476 9.95417 39.1424 11.5298C40.3502 14.3894 44.4652 14.6978 46.0478 12.3135C47.6305 9.92916 46.7142 6.08589 44.4985 4.05171C42.2911 2.00919 39.184 1.58402 36.5351 2.28431C33.7946 3.00961 31.5622 4.86038 29.9629 7.3114C30.371 5.36893 30.5876 4.36807 30.5876 2.30888L30.5876 2.13381C30.5876 1.50855 30.0712 1 29.4464 1C28.8217 1 28.3136 1.51688 28.3136 2.14214L28.3136 2.30888C28.3136 9.77032 25.2482 15.5565 20.3169 20.4919C15.3773 25.4356 8.58844 28.4952 1.14155 28.4952C0.516806 28.4952 0.00868841 29.0038 0.00868838 29.629C0.00868835 30.2543 0.516806 30.7628 1.14155 30.7628C2.50764 30.7628 3.84875 30.6628 5.16487 30.4794C3.14071 32.0217 1.61635 34.0475 0.974951 36.4652C0.275244 39.1163 0.700063 42.2176 2.74088 44.4352C4.7817 46.6445 8.61343 47.5615 10.9958 45.9858C13.3781 44.4019 13.0699 40.2835 10.2128 39.0746C8.63843 38.4077 6.70589 38.6495 5.33146 37.6574C4.16528 36.8154 3.81543 35.2814 4.23192 34.0642C4.64009 32.847 5.66466 31.905 6.80585 31.188C15.4189 25.7691 27.2223 32.3552 29.0299 41.4923C30.6792 49.8124 24.765 56.4235 18.7259 62.1843C15.5355 65.2272 8.26358 66.6778 5.81459 61.3839C5.58136 60.8754 5.23984 60.2168 4.65675 60.2585C4.44017 60.2751 4.25691 60.3919 4.09031 60.5252C2.85749 61.509 2.26608 63.0596 2.30773 64.6019C2.35771 66.5861 3.32397 68.7453 4.87333 70.2543C5.55638 70.9213 7.98869 71.7132 8.31356 72.3969C8.68007 73.1555 6.89748 75.8483 6.54763 76.5653C3.21568 83.4598 -1.41572 90.8296 0.94163 98.9746C1.44976 100.734 3.0824 99.8666 3.78211 98.8829L3.79044 98.8912Z" fill="#BBCC77"/>
<path d="M19.6335 1.24229L19.6335 1.13391L19.6335 0.884766L1.32732 0.884765L0.884844 1.32724L0.884843 19.75L1.13292 19.75C11.287 19.75 19.6252 11.3965 19.6335 1.23395L19.6335 1.24229Z" fill="#BBCC77"/>
<path d="M41.9159 41.7091C41.2578 41.5591 40.6248 41.409 40.0417 41.259C40.2666 41.8092 40.4998 42.4178 40.7081 43.043C42.5573 48.3536 44.165 55.7567 40.1999 58.8079C47.2137 59.9001 48.838 53.3807 43.6985 44.502C53.1279 48.537 59.4003 46.136 57.4761 39.2998C54.9271 43.6099 47.4053 42.918 41.9159 41.7091Z" fill="#BBCC77"/>
</g>
<defs>
<clipPath id="clip0_56_356">
<rect width="100" height="100" fill="white" transform="translate(100) rotate(90)"/>
</clipPath>
</defs>
</svg>
