<svg width="100" height="100" viewBox="0 0 100 100" fill="none" xmlns="http://www.w3.org/2000/svg">
<g clip-path="url(#clip0_56_437)">
<path d="M96.2096 98.8912C94.7768 96.8571 92.5528 95.3064 91.3116 93.1722C90.4786 93.4973 89.7539 94.2643 88.8376 94.6145C87.7881 95.0146 86.6552 95.1814 85.564 95.1147C81.4241 94.8812 79.0251 92.0217 78.467 88.9121C78.3753 88.3702 79.0584 87.995 79.5915 88.3118C82.8401 90.2793 84.9476 85.9275 85.0892 84.0351C85.2558 81.8508 84.9642 79.6749 84.6144 77.549C83.9147 73.3223 81.7989 69.7708 79.1583 66.4777C78.2254 65.5774 77.3258 64.6436 76.4428 63.6932C76.701 64.4435 76.9426 65.1939 77.1425 65.9692C77.8089 68.5369 78.6086 71.6632 77.6506 74.3644C76.1846 78.4911 70.9701 80.9254 66.7052 79.5332C62.6069 78.191 60.1329 73.8225 62.2654 69.8792C62.5652 69.3206 62.9734 68.8037 63.4649 68.3619C64.5977 67.3281 66.1638 66.7028 67.7131 66.6862C69.1292 66.6695 70.8868 67.228 71.5115 68.4202C71.8614 69.0955 71.978 70.1293 71.6281 70.8629C71.3866 71.3548 70.9701 71.7799 70.4536 72.0467C69.479 72.5553 68.6877 72.1384 67.7381 72.3468C64.4478 73.0555 66.1887 75.3064 67.2883 75.8983C68.0296 76.2985 68.9126 76.3985 69.7872 76.3652C78.5003 76.015 75.9014 66.3777 74.0105 61.8841C73.644 61.0088 73.2191 60.1501 72.786 59.2914C70.2204 55.8066 68.2046 52.005 67.1717 47.8616C65.8472 42.5427 66.8135 36.2735 71.1617 32.0634C72.8276 30.446 74.9101 29.2205 77.1425 28.3785C78.2337 27.97 79.3582 27.6532 80.4994 27.4365C81.8822 27.1697 83.2899 27.0696 84.6894 27.1113C79.5831 24.2768 75.3932 19.9583 72.7027 14.7645C72.9609 16.7653 72.9109 18.8329 72.5194 20.842C72.3028 21.9758 71.9863 23.1097 71.5782 24.2018C70.7452 26.4444 69.5124 28.5202 67.8964 30.1876C63.6898 34.5394 57.4257 35.5065 52.1113 34.1809C47.963 33.1472 44.1729 31.1297 40.691 28.5619C39.8331 28.1284 38.9751 27.7032 38.1004 27.3364C33.6023 25.444 23.9813 22.8429 23.6315 31.5632C23.5982 32.4385 23.6981 33.3306 24.0979 34.0642C24.6894 35.1647 26.9384 36.8987 27.6465 33.614C27.8547 32.6553 27.4382 31.8633 27.9463 30.8962C28.2212 30.3793 28.6377 29.9625 29.1292 29.7207C29.8622 29.3623 30.8951 29.479 31.5698 29.8375C32.7527 30.4627 33.3108 32.2218 33.3024 33.639C33.2858 35.1897 32.6527 36.757 31.6281 37.8908C31.1867 38.3827 30.6702 38.7912 30.1121 39.0913C26.1721 41.2255 21.8072 38.7495 20.4661 34.6478C19.0667 30.3877 21.499 25.1605 25.6306 23.6932C28.3295 22.7345 31.4532 23.5348 34.0188 24.2018C34.7935 24.4019 35.5432 24.6353 36.2929 24.9021C35.3433 24.0267 34.4103 23.118 33.5107 22.1843C30.2204 19.5332 26.6719 17.4156 22.4486 16.7237C20.3245 16.3735 18.1504 16.0817 15.968 16.2485C14.0771 16.3902 9.72893 18.4911 11.6948 21.7508C12.0196 22.2843 11.6365 22.9763 11.095 22.8762C7.99632 22.326 5.13085 19.925 4.89762 15.7733C4.83931 14.6811 4.99757 13.5473 5.39741 12.4969C5.74726 11.5798 6.50528 10.8545 6.83847 10.0209C4.70603 8.77868 3.15667 6.55276 1.12419 5.11882C0.132934 4.41853 -0.725042 2.78452 1.02423 2.27597C9.15417 -0.0916803 16.5094 4.53525 23.3982 7.86997C24.1229 8.22012 26.8051 10.0042 27.5632 9.63737C28.2462 9.3039 29.0376 6.87789 29.7039 6.19427C31.2116 4.64362 33.3691 3.67656 35.3516 3.62653C36.9009 3.58485 38.4503 4.17676 39.4249 5.41061C39.5498 5.56901 39.6748 5.75242 39.6914 5.97751C39.7331 6.56109 39.075 6.9029 38.5669 7.13633C33.2858 9.57902 34.7352 16.8654 37.7672 20.05C43.5232 26.0942 50.1288 32.0134 58.442 30.3627C67.5715 28.5536 74.1521 16.7487 68.7377 8.12007C68.0213 6.97793 67.0884 5.9525 65.8639 5.544C64.6394 5.1355 63.115 5.48564 62.2737 6.64446C61.2824 8.02003 61.524 9.95417 60.8576 11.5298C59.6498 14.3894 55.5348 14.6978 53.9522 12.3135C52.3695 9.92916 53.2858 6.08589 55.5015 4.05171C57.7089 2.00919 60.816 1.58402 63.4649 2.28431C66.2054 3.00961 68.4378 4.86038 70.0371 7.3114C69.629 5.36893 69.4124 4.36807 69.4124 2.30888L69.4124 2.13381C69.4124 1.50855 69.9288 1 70.5536 1C71.1783 1 71.6864 1.51688 71.6864 2.14214L71.6864 2.30888C71.6864 9.77032 74.7518 15.5565 79.6831 20.4919C84.6227 25.4356 91.4116 28.4952 98.8585 28.4952C99.4832 28.4952 99.9913 29.0038 99.9913 29.629C99.9913 30.2543 99.4832 30.7628 98.8585 30.7628C97.4924 30.7628 96.1512 30.6628 94.8351 30.4794C96.8593 32.0217 98.3837 34.0475 99.025 36.4652C99.7248 39.1163 99.2999 42.2176 97.2591 44.4352C95.2183 46.6445 91.3866 47.5615 89.0042 45.9858C86.6219 44.4019 86.9301 40.2835 89.7872 39.0746C91.3616 38.4077 93.2941 38.6495 94.6685 37.6574C95.8347 36.8154 96.1846 35.2814 95.7681 34.0642C95.3599 32.847 94.3353 31.905 93.1941 31.188C84.5811 25.7691 72.7777 32.3552 70.9701 41.4923C69.3208 49.8124 75.235 56.4235 81.2741 62.1843C84.4645 65.2272 91.7364 66.6778 94.1854 61.3839C94.4186 60.8754 94.7602 60.2168 95.3432 60.2585C95.5598 60.2751 95.7431 60.3919 95.9097 60.5252C97.1425 61.509 97.7339 63.0596 97.6923 64.6019C97.6423 66.5861 96.676 68.7453 95.1267 70.2543C94.4436 70.9213 92.0113 71.7132 91.6864 72.3969C91.3199 73.1555 93.1025 75.8483 93.4524 76.5653C96.7843 83.4598 101.416 90.8296 99.0584 98.9746C98.5502 100.734 96.9176 99.8666 96.2179 98.8829L96.2096 98.8912Z" fill="#BBCC77"/>
<path d="M80.3667 1.24229L80.3667 1.13391L80.3667 0.884766L98.6729 0.884765L99.1154 1.32724L99.1154 19.75L98.8673 19.75C88.7132 19.75 80.375 11.3965 80.3667 1.23395L80.3667 1.24229Z" fill="#BBCC77"/>
<path d="M58.0844 41.7091C58.7424 41.5591 59.3755 41.409 59.9586 41.259C59.7337 41.8092 59.5004 42.4178 59.2922 43.043C57.443 48.3536 55.8353 55.7567 59.8003 58.8079C52.7866 59.9001 51.1622 53.3807 56.3018 44.502C46.8724 48.537 40.6 46.136 42.5242 39.2998C45.0731 43.6099 52.595 42.918 58.0844 41.7091Z" fill="#BBCC77"/>
</g>
<defs>
<clipPath id="clip0_56_437">
<rect width="100" height="100" fill="white" transform="matrix(5.23838e-08 1 1 -5.23838e-08 0 0)"/>
</clipPath>
</defs>
</svg>
