<svg width="56" height="51" viewBox="0 0 56 51" fill="none" xmlns="http://www.w3.org/2000/svg">
<path d="M56 8.27624C56 3.87771 52.2881 0 46.5205 0C41.4207 0 37.0319 2.05285 33.4742 6.10079C30.8478 9.09089 29.1195 13.152 28 17.6144C26.8805 13.151 25.1522 9.08988 22.5248 6.10079C18.9681 2.05285 14.5793 0 9.47953 0C3.71191 0 0 3.87771 0 8.27624C0 20.0462 27.7136 50.6889 28 51C28.2864 50.6879 56 20.0462 56 8.27624ZM47.674 6.44023C60.4098 14.8168 41.4057 26.9363 29.8404 40.6304C30.272 31.6155 32.2436 -3.70749 47.674 6.44023ZM8.327 6.44023C23.7564 -3.70749 25.729 31.6155 26.1606 40.6304C14.5943 26.9363 -4.40883 14.8168 8.326 6.44124L8.327 6.44023Z" fill="white"/>
</svg>
