<svg width="92" height="81" viewBox="0 0 92 81" fill="none" xmlns="http://www.w3.org/2000/svg">
<path d="M47.5137 79.3961C60.7562 65.3746 92 32.0589 92 13.2356C92 11.3837 91.7206 9.68311 91.1167 8.15355C89.6444 4.43252 85.9022 0 76.4246 0C68.0468 0 60.8367 3.28224 54.9931 9.75748C50.6771 14.5395 47.8384 21.0346 45.9987 28.1718C44.1616 21.0346 41.3203 14.5395 37.0043 9.75748C31.1608 3.28224 23.9507 0 15.5728 0C6.09776 0 2.35555 4.43252 0.885849 8.15355C0.279345 9.68311 0 11.3862 0 13.2356C0 32.0589 31.2413 65.3746 44.4863 79.3961C45.0173 79.9588 45.5306 80.5017 46.0013 81C46.4719 80.5017 46.9827 79.9613 47.5163 79.3961H47.5137ZM78.3197 10.3004C99.2428 23.6971 68.0217 43.0782 49.0237 64.978C49.7334 50.5624 52.9723 -5.92985 78.3197 10.3004ZM13.6778 10.3004C39.0277 -5.92737 42.2666 50.5624 42.9738 64.978C23.9758 43.0782 -7.24283 23.6971 13.6778 10.3004Z" fill="#889966"/>
</svg>
