<svg width="50" height="60" viewBox="0 0 50 60" fill="none" xmlns="http://www.w3.org/2000/svg">
<g clip-path="url(#clip0_276_10034)">
<path d="M44.9938 49.9748C44.9938 49.8811 44.9751 49.7811 44.9501 49.6873L42.9438 35.6311C42.7126 33.9936 42.5751 32.3498 42.4063 30.6998C41.5126 21.8748 34.0563 14.9873 24.9938 14.9873C15.9313 14.9873 8.48131 21.8748 7.58131 30.6998C7.41256 32.3436 7.27506 33.9936 7.04381 35.6311L5.03756 49.6873C5.01256 49.7811 5.00005 49.8748 4.9938 49.9748V49.9998C4.9938 49.9998 4.9938 49.9998 4.9938 50.0061C4.9938 52.4811 12.2001 54.5373 21.6563 54.9373C21.7376 55.1748 21.8313 55.4061 21.9376 55.6311C21.9751 55.7123 22.0251 55.7936 22.0688 55.8748C22.1376 56.0123 22.2063 56.1561 22.2876 56.2873C22.3563 56.4061 22.4376 56.5186 22.5126 56.6311C22.5751 56.7248 22.6313 56.8186 22.6938 56.9061C22.8376 57.1061 22.9938 57.2998 23.1563 57.4811C24.5313 59.0186 26.5188 59.9936 28.7438 59.9936C31.2563 59.9936 33.4751 58.7561 34.8376 56.8561C34.9813 56.6561 35.1126 56.4498 35.2376 56.2373C35.6063 55.5998 35.8813 54.9061 36.0501 54.1686C41.4438 53.2748 44.9938 51.7436 44.9938 49.9998C44.9938 49.9998 44.9938 49.9998 44.9938 49.9936V49.9686V49.9748ZM44.8438 49.3936C44.8438 49.3936 44.8313 49.3748 44.8251 49.3623C44.8251 49.3748 44.8376 49.3811 44.8438 49.3936ZM44.6626 49.0936C44.6626 49.0936 44.6501 49.0748 44.6438 49.0686C44.6501 49.0748 44.6563 49.0873 44.6626 49.0936ZM43.2751 47.9686C43.2313 47.9436 43.1813 47.9186 43.1376 47.8936C43.1876 47.9186 43.2313 47.9436 43.2751 47.9686ZM42.7813 47.7123C42.7313 47.6873 42.6876 47.6623 42.6376 47.6436C42.6876 47.6686 42.7313 47.6936 42.7813 47.7123ZM9.96256 32.0998C10.0001 31.7186 10.0376 31.3436 10.0751 30.9623C10.8563 23.2873 17.2688 17.4998 25.0001 17.4998C32.7313 17.4998 39.1438 23.2873 39.9251 30.9623C39.9626 31.3436 40.0001 31.7186 40.0376 32.0998C40.1626 33.3686 40.2876 34.6811 40.4751 35.9936L42.1063 47.4186C38.6001 45.9748 32.2501 45.0123 25.0001 45.0123C17.7501 45.0123 11.4001 45.9748 7.89381 47.4186L9.52506 35.9936C9.71256 34.6811 9.83756 33.3686 9.96256 32.0998ZM7.35631 47.6561C7.30631 47.6811 7.26256 47.7061 7.21256 47.7248C7.26256 47.6998 7.30631 47.6748 7.35631 47.6561ZM6.86255 47.9061C6.81255 47.9311 6.76881 47.9561 6.72506 47.9811C6.76881 47.9561 6.8188 47.9311 6.86255 47.9061ZM5.16881 49.3686C5.16881 49.3686 5.1563 49.3873 5.15005 49.3998C5.15005 49.3873 5.16256 49.3811 5.16881 49.3686ZM5.3563 49.0748C5.3563 49.0748 5.34381 49.0936 5.33756 49.0998C5.34381 49.0936 5.35005 49.0811 5.3563 49.0748ZM36.1938 51.6186C36.1626 51.3748 36.1251 51.1311 36.0751 50.8873C35.2313 50.7373 34.3126 50.5998 33.3251 50.4811C33.4188 50.6936 33.4938 50.9123 33.5563 51.1373C33.5688 51.1873 33.5813 51.2373 33.5938 51.2873C33.6501 51.5186 33.7001 51.7561 33.7251 51.9936C33.7438 52.1623 33.7501 52.3311 33.7501 52.4998C33.7501 53.2248 33.5876 53.9186 33.3126 54.5436C33.3126 54.5436 33.3063 54.5561 33.3001 54.5623C32.9876 55.2561 32.5188 55.8623 31.9376 56.3436C31.9313 56.3498 31.9188 56.3561 31.9063 56.3623C31.7688 56.4748 31.6313 56.5811 31.4813 56.6748C31.4501 56.6936 31.4188 56.7123 31.3813 56.731C31.2501 56.8123 31.1251 56.8873 30.9876 56.9561C30.9126 56.9935 30.8313 57.0248 30.7563 57.0561C30.6563 57.0998 30.5626 57.1498 30.4626 57.1811C30.2813 57.2498 30.1001 57.3061 29.9063 57.3498C29.5313 57.4373 29.1438 57.4936 28.7438 57.4936C28.5188 57.4936 28.3001 57.4748 28.0813 57.4436C27.8876 57.4186 27.6938 57.3811 27.5063 57.3311C27.3938 57.2998 27.2876 57.2623 27.1751 57.2248C27.1001 57.1998 27.0251 57.1811 26.9563 57.1561C26.7938 57.0936 26.6376 57.0186 26.4813 56.9436C26.4688 56.9373 26.4501 56.9311 26.4376 56.9248C26.1063 56.7498 25.7938 56.5436 25.5126 56.2998C25.5126 56.2998 25.5126 56.2998 25.5063 56.2936C25.0813 55.9248 24.7126 55.4936 24.4251 54.9998C23.9938 54.2623 23.7438 53.4061 23.7438 52.4936C23.7438 52.4811 23.7438 52.4686 23.7438 52.4561C23.7438 52.0186 23.8063 51.5936 23.9188 51.1873C23.9313 51.1373 23.9501 51.0936 23.9688 51.0436C24.0188 50.8873 24.0688 50.7311 24.1313 50.5748C24.2126 50.3811 24.3063 50.1873 24.4126 50.0061C23.4563 50.0123 22.5313 50.0373 21.6501 50.0748C21.5876 50.2623 21.5313 50.4498 21.4813 50.6373C21.3376 51.2061 21.2563 51.7998 21.2438 52.4123C14.4938 52.0811 10.0063 50.9186 8.16881 50.0061C10.3251 48.9311 16.1313 47.5061 24.9876 47.5061C33.8438 47.5061 39.6563 48.9311 41.8063 50.0061C40.7626 50.5248 38.8626 51.1248 36.1813 51.6123L36.1938 51.6186Z" fill="#889966"/>
<path d="M25.0001 13.6064C27.7626 13.6064 30.0001 11.3689 30.0001 8.60645C30.0001 5.84395 27.7626 3.60645 25.0001 3.60645C22.2376 3.60645 20.0001 5.84395 20.0001 8.60645C20.0001 11.3689 22.2376 13.6064 25.0001 13.6064ZM25.0001 6.10645C26.3813 6.10645 27.5001 7.2252 27.5001 8.60645C27.5001 9.9877 26.3813 11.1064 25.0001 11.1064C23.6188 11.1064 22.5001 9.9877 22.5001 8.60645C22.5001 7.2252 23.6188 6.10645 25.0001 6.10645Z" fill="#889966"/>
<path d="M47.5001 16.1067C47.5001 18.1755 45.8188 19.8567 43.7501 19.8567C41.6813 19.8567 40.0001 18.1755 40.0001 16.1067V14.8567C40.0001 13.0692 39.2438 11.4567 38.0313 10.3192L39.3313 10.1692C41.4688 9.91921 43.1751 8.18171 43.3813 6.03796V5.91296C43.3813 2.84421 40.9876 0.256715 37.9313 0.0192153C36.7376 -0.0745347 35.5563 0.194215 34.5188 0.800465L30.2563 3.26921C30.8563 3.85671 31.3501 4.55046 31.7251 5.30671L35.7751 2.96296C36.3751 2.61921 37.0563 2.46297 37.7438 2.51296C39.4876 2.64421 40.8626 4.10671 40.8938 5.85046C40.7751 6.80671 40.0063 7.56921 39.0438 7.68171L32.4938 8.45046C32.4938 8.50046 32.5001 8.55046 32.5001 8.60671C32.5001 9.45046 32.3563 10.2567 32.0938 11.013C32.0813 11.0442 32.0688 11.0755 32.0626 11.1067H33.7501C35.8188 11.1067 37.5001 12.788 37.5001 14.8567V16.1067C37.5001 19.5505 40.3063 22.3567 43.7501 22.3567C47.1938 22.3567 50.0001 19.5505 50.0001 16.1067H47.5001Z" fill="#889966"/>
<path d="M12.5001 16.1067V14.8567C12.5001 12.788 14.1813 11.1067 16.2501 11.1067H17.9376C17.9376 11.1067 17.9126 11.0442 17.9063 11.013C17.6501 10.2567 17.5001 9.44421 17.5001 8.60671C17.5001 8.55672 17.5063 8.50671 17.5063 8.45046L10.9563 7.68171C9.99381 7.56921 9.22506 6.80046 9.10631 5.85046C9.13756 4.10671 10.5126 2.65046 12.2563 2.51296C12.9438 2.45671 13.6251 2.61296 14.2251 2.96296L18.2688 5.30671C18.6438 4.54421 19.1376 3.85671 19.7376 3.26921L15.4751 0.800465C14.4438 0.194215 13.2626 -0.0745347 12.0688 0.0192153C9.00631 0.256715 6.61256 2.84421 6.61256 5.91296V6.03796C6.83131 8.18171 8.53131 9.91921 10.6688 10.1692L11.9688 10.3192C10.7626 11.4567 10.0001 13.0692 10.0001 14.8567V16.1067C10.0001 18.1755 8.31881 19.8567 6.25006 19.8567C4.18131 19.8567 2.50006 18.1755 2.50006 16.1067H6.10352e-05C6.10352e-05 19.5505 2.80631 22.3567 6.25006 22.3567C9.69381 22.3567 12.5001 19.5505 12.5001 16.1067Z" fill="#889966"/>
</g>
<defs>
<clipPath id="clip0_276_10034">
<rect width="50" height="60" fill="white"/>
</clipPath>
</defs>
</svg>
