<svg width="53" height="60" viewBox="0 0 53 60" fill="none" xmlns="http://www.w3.org/2000/svg">
<g clip-path="url(#clip0_276_10029)">
<path d="M39.0876 16.3637L41.1479 14.2432C44.3147 10.9841 44.3147 5.70002 41.1479 2.44774C39.5646 0.818199 37.4909 0.00683594 35.4173 0.00683594C33.3437 0.00683594 31.2701 0.818199 29.6867 2.44774L26.5001 5.72729L23.3134 2.44774C21.7301 0.818199 19.6564 0.00683594 17.5828 0.00683594C15.5092 0.00683594 13.4356 0.818199 11.8522 2.44774C8.68544 5.70684 8.68544 10.9909 11.8522 14.2432L13.9126 16.3637H6.10352e-05L6.10352e-05 35.4546H5.30006L5.30006 60H47.7001V35.4546H53.0001V16.3637H39.0876ZM16.9071 15.5932L13.7204 12.3137C12.6869 11.25 12.1238 9.84547 12.1238 8.34547C12.1238 6.84547 12.6936 5.43411 13.7204 4.37729C14.7473 3.32047 16.1187 2.73411 17.5762 2.73411C19.0337 2.73411 20.4051 3.32047 21.4319 4.37729L24.6186 7.65684L26.4934 9.58638L28.3683 7.65684L31.5549 4.37729C32.5884 3.31365 33.9532 2.73411 35.4107 2.73411C36.8682 2.73411 38.2396 3.32047 39.2664 4.37729C40.2999 5.44093 40.8631 6.84547 40.8631 8.34547C40.8631 9.84547 40.2933 11.2568 39.2664 12.3137L36.0798 15.5932L35.3312 16.3637H17.6491L16.9004 15.5932H16.9071ZM45.0501 57.2727H34.4501V38.1818H31.8001V57.2727H21.2001V38.1818H18.5501V57.2727H7.95006L7.95006 35.4546H45.0501V57.2727ZM50.3501 21.8182V32.7273H34.4501V21.8182H31.8001V32.7273H21.2001V21.8182H18.5501V32.7273H2.65006L2.65006 19.0909H50.3501V21.8182Z" fill="#889966"/>
</g>
<defs>
<clipPath id="clip0_276_10029">
<rect width="53" height="60" fill="white"/>
</clipPath>
</defs>
</svg>
