<svg width="55" height="60" viewBox="0 0 55 60" fill="none" xmlns="http://www.w3.org/2000/svg">
<path d="M26.125 32.7275H13.75V35.4548H26.125V32.7275Z" fill="#889966"/>
<path d="M26.125 40.9092H8.25V43.6365H26.125V40.9092Z" fill="#889966"/>
<path d="M39.1875 49.0908H8.25V51.8181H39.1875V49.0908Z" fill="#889966"/>
<path d="M49.5 24.5459V27.2732H52.25V57.2732H2.75V27.2732H28.875V24.5459H0V60.0004H55V24.5459H49.5Z" fill="#889966"/>
<path d="M41.965 41.5906L39.1875 46.3633L36.41 41.5906H41.965ZM46.7294 38.8633H31.6457L39.1875 51.8178L46.7294 38.8633Z" fill="#889966"/>
<path d="M43.9999 2.72727V32.7273H34.3749V2.72727H43.9999ZM46.7499 0H31.6249V35.4545H46.7499V0Z" fill="#889966"/>
<path d="M11.3024 13.5003L18.1087 20.2503L24.9149 13.5003C26.7918 11.6389 26.7918 8.61163 24.9149 6.75027C23.9731 5.81618 22.7424 5.35254 21.5118 5.35254C20.2812 5.35254 19.0506 5.81618 18.1087 6.75027C17.1668 5.81618 15.9362 5.35254 14.7056 5.35254C13.4749 5.35254 12.2443 5.81618 11.3024 6.75027C9.42556 8.61163 9.42556 11.6389 11.3024 13.5003ZM13.2481 8.67981C13.6399 8.29118 14.1556 8.07981 14.7056 8.07981C15.2556 8.07981 15.7712 8.29118 16.1631 8.67981L18.1087 10.6094L20.0543 8.67981C20.4462 8.29118 20.9618 8.07981 21.5118 8.07981C22.0618 8.07981 22.5774 8.29118 22.9693 8.67981C23.7737 9.47754 23.7737 10.773 22.9693 11.5707L18.1087 16.3912L13.2481 11.5707C12.4437 10.773 12.4437 9.47754 13.2481 8.67981Z" fill="#889966"/>
</svg>
