<svg width="60" height="60" viewBox="0 0 60 60" fill="none" xmlns="http://www.w3.org/2000/svg">
<path d="M10.9091 19.0908H8.18182V21.8181H10.9091V19.0908Z" fill="#889966"/>
<path d="M10.9091 27.2725H8.18182V29.9997H10.9091V27.2725Z" fill="#889966"/>
<path d="M10.9091 35.4541H8.18182V38.1814H10.9091V35.4541Z" fill="#889966"/>
<path d="M35.4545 35.4541H13.6364V38.1814H35.4545V35.4541Z" fill="#889966"/>
<path d="M10.9091 43.6367H8.18182V46.364H10.9091V43.6367Z" fill="#889966"/>
<path d="M35.4545 43.6367H13.6364V46.364H35.4545V43.6367Z" fill="#889966"/>
<path d="M40.9091 53.4137L40.1114 52.616L38.1818 50.6864L36.2523 52.616L32.7273 56.141L29.2023 52.616L27.2727 50.6864L25.3432 52.616L21.8182 56.141L18.2932 52.616L16.3636 50.6864L14.4341 52.616L10.9091 56.141L7.38409 52.616L5.45455 50.6864L3.525 52.616L2.72727 53.4137V13.6365H24.7432C24.8795 12.7024 25.0773 11.7955 25.3432 10.9092H0V60.0001L5.45455 54.5455L10.9091 60.0001L16.3636 54.5455L21.8182 60.0001L27.2727 54.5455L32.7273 60.0001L38.1818 54.5455L43.6364 60.0001V35.4546C42.7091 35.4546 41.8023 35.3864 40.9091 35.2569V53.4137Z" fill="#889966"/>
<path d="M13.6364 21.8181H25.3432C25.0773 20.9317 24.8795 20.0249 24.7432 19.0908H13.6364V21.8181Z" fill="#889966"/>
<path d="M13.6364 29.9997H30.2932C29.4409 29.1679 28.6704 28.2543 27.9818 27.2725H13.6364V29.9997Z" fill="#889966"/>
<path d="M43.6364 2.72727C51.1569 2.72727 57.2728 8.84318 57.2728 16.3636C57.2728 23.8841 51.1569 30 43.6364 30C36.1159 30 30 23.8841 30 16.3636C30 8.84318 36.1159 2.72727 43.6364 2.72727ZM43.6364 0C34.6023 0 27.2728 7.32955 27.2728 16.3636C27.2728 25.3977 34.6023 32.7273 43.6364 32.7273C52.6705 32.7273 60 25.3977 60 16.3636C60 7.32955 52.6705 0 43.6364 0Z" fill="#889966"/>
<path d="M42.8182 22.2476L36.0614 15.484L37.9909 13.5544L42.8182 18.3885L50.3796 10.8271L52.3091 12.7567L42.8182 22.2476Z" fill="#889966"/>
</svg>
