<svg width="63" height="42" viewBox="0 0 63 42" fill="none" xmlns="http://www.w3.org/2000/svg">
<g clip-path="url(#clip0_276_10022)">
<path d="M53.8126 39.375H2.62506L2.62506 9.1875H5.25006V6.5625H6.10352e-05L6.10352e-05 42H56.4376V36.75H53.8126V39.375Z" fill="#889966"/>
<path d="M39.001 8.53125C37.7016 8.53125 36.4613 8.94469 35.4376 9.70594C34.4138 8.94469 33.1735 8.53125 31.8741 8.53125C30.2729 8.53125 28.7701 9.15469 27.6413 10.2834C26.5126 11.4122 25.8891 12.915 25.8891 14.5163C25.8891 16.1175 26.5126 17.6203 27.6413 18.7491L28.8291 19.9369L33.5804 24.6881L35.4376 26.5453L37.2948 24.6881L42.046 19.9369L43.2338 18.7491C44.3626 17.6203 44.986 16.1175 44.986 14.5163C44.986 12.915 44.3626 11.4122 43.2338 10.2834C42.1051 9.15469 40.6023 8.53125 39.001 8.53125ZM41.3766 16.8919L40.1888 18.0797L35.4376 22.8309L30.6863 18.0797L29.4985 16.8919C28.186 15.5794 28.186 13.4531 29.4985 12.1406C30.1548 11.4844 31.0144 11.1562 31.8741 11.1562C32.7338 11.1562 33.5935 11.4844 34.2498 12.1406L35.4376 13.3284L36.6254 12.1406C37.2816 11.4844 38.1413 11.1562 39.001 11.1562C39.8607 11.1562 40.7204 11.4844 41.3766 12.1406C42.6891 13.4531 42.6891 15.5794 41.3766 16.8919Z" fill="#889966"/>
<path d="M7.87506 0L7.87506 34.125H63.0001V0L7.87506 0ZM60.4341 31.5984H10.441V4.06219L23.3429 15.6319C23.2969 15.2644 23.2641 14.8969 23.2641 14.5228C23.2641 13.7616 23.3691 13.02 23.5594 12.3047L12.6591 2.52656L58.216 2.52656L47.3157 12.2981C47.506 13.0134 47.611 13.755 47.611 14.5163C47.611 14.8903 47.5782 15.2578 47.5322 15.6253L60.4341 4.05562V31.5919V31.5984Z" fill="#889966"/>
</g>
<defs>
<clipPath id="clip0_276_10022">
<rect width="63" height="42" fill="white"/>
</clipPath>
</defs>
</svg>
